# xmcd CD database file
#
# Track frame offsets:
#	182
#	31305
#	73780
#	101770
#	128972
#	157320
#	194055
#	225882
#	262075
#
# Disc length: 3876 seconds
#
# Revision: 0
# Processed by: cddbd v1.4PL0 Copyright (c) Steve Scherf et al.
# Submitted via: CDex 1.51
#
DISCID=840f2209
DTITLE=Bob Rockwell Trio - Born To Be Blue
DYEAR=1900
DGENRE=Jazz
TTITLE0=Bye-Ya
TTITLE1=Born To Be Blue
TTITLE2=Gaslight
TTITLE3=A Nightingale Sang In Berkeley Square
TTITLE4=Bye Bye Baby
TTITLE5=Jitterbug Waltz
TTITLE6=The First Song
TTITLE7=While We're Young
TTITLE8=Dizzy's Business
EXTD=
EXTT0=
EXTT1=
EXTT2=
EXTT3=
EXTT4=
EXTT5=
EXTT6=
EXTT7=
EXTT8=
PLAYORDER=
